/* XPM */
static char * back4_xpm[] = {
"64 64 11 1",
" 	c None",
".	c #666664",
"+	c #51514F",
"@	c #434341",
"#	c #2E2E2C",
"$	c #7A7A79",
"%	c #39393A",
"&	c #324A48",
"*	c #4A6D6B",
"=	c #7A9694",
"-	c #4A3233",
".+@+.+@+++.@..++.++.#.+++++++.$++++++@..+@+%.++++.$+++@.++$++.++",
".@@..%+++.++..++++.+@$+++.$.++@#%@+++..++..+...+$..@.@+.++++.+++",
"+@...%@%+.+++.+++++@&...+.$##&+%..++..+&.+#@%%@+.+@%@&+++@@+&@++",
"+.&+++...+@&.%++.%++$.$%@++%+++++..+.+%%.+++++...++++@+++%*+.+.$",
"..++++.++*.++++.+++@++$%+@+@%@+%%.$.+@++.+%+++.=+++++++%.+.$...+",
".++$%.#+*++%@++++.%...$%+*.+%.$+$=.#%&@..%+++*$.%++%&+..+%..++++",
".++.#...+#.++..#+@+++.$%++.%.$$$$.%*+...++.+*%++#++*$.+.++@#+.++",
"++@+@+++++.%+..++..+.+$@%++#&#++%#%##++.++++@+.@+...++++@+$=.+++",
"++++*++.++*++..+*.%@%+.+@%@%+$=##++.$.++%+%+++@+.+++++....*+%%%#",
"+++%+++.%++++..+++++.@+.@+.+=.%#....%#@++@@.@%.$+++....%++@%@+++",
"+.+&@++.++..@++*%++.+++.%*...%+..++%%+$@++..+..++..+%@%@++%%+$++",
".$%+++@+.+.+++.%@.+++..+&++@+@.%#%@.+.+....+%++@%+%++..+.+....%.",
".+@.+..%+%+%.+.+++.++%+*+&#%%+@%+*..+*%@%%%@+.....+..$++++..@.%.",
".%%@%++++..++@++.....$.$++.$$.$.$..++@%+...%+..++&%+&+++++.&%+%.",
".&+....@@*@++.*+.++%+@@+%+...+.+..$$%+.$...@+.+++++.$%.+..=@++@+",
"++++@%#%+....+%++++@+++..+%%##%%@%@@++++@++#+.+.++++.@..+*+%%.+%",
"+++...$...+%++++....$$+*+.+++..+@&+@+%%+&+.%$.....+..+++*.%+$.++",
"++.+.+@%+%@@++*..++++%#@+++++..++..%+%...++@.%%+.+....+$@+.$.++.",
"+++%%%@*$@++.++%+%+++&...++%.+++*.%++.+++..++*.+.#%+@+%++@@%%%#%",
"%#+@+++.+%.$.+@+.@+.++$.+++@++$&.+%.+#%++++++++..%..@++$@+$+++..",
"&+..*@..@..%%*%..+..%.@%+.%+@+++.++++@..++#++..+@+.....+%.+#++.@",
"+++.++.+.+%+..+.+%+..+@+.@..+.++++++$.$*%@.++%%%+$++.+.+*.@&.++@",
"$..++..++%+.+.@%+.++++%..++++.$.#%..+.+%++$$++$+++%+++.+.@%+..+@",
"+%+.+$.%@+.++..++@%.@+++*+++%+.+%..%+.%+%%++%.+.$.+$+.++++..++@+",
"%+..#.++..*..$..+$$.+=@+.+...++#%.$+%++.@+.+@+&++%++++...++++..$",
"++.@%+%+++..++@%++@%@%%.+++++*+#$$@@@+#++..++*+++@+.++.++++%...+",
".++%.%+++%++%%%+.@@.*+@+%+%@+++.$@%+++++%++.%++..$++%.%&++++..++",
"++..$*$$=$$+.+..++.+#@+..++.$...@%+.+.%.#++.&+.$%+%++**.++.+.+%#",
"@+++@%.+@@+@.++.%.++++++@%.$.+%+++++++++@.++++..++.++@+%%++.%%+$",
"++.++++%%+.+&+++++.*%+.+++++%#+++..%&+.%+....$..++++.%++++++++++",
"+..*++++.++&-.%@++.++.$.+..+%+...+*+$.+@...+$.++++++$@%++%..+%+.",
"+..@@..$+%+++..%+..+.$.%%++%&.+++++++@.+...+.+++++..*++.++$++@%.",
".$%+..@@%.+++++@+.$++%@+$+*%+.++++%@%+.+.*+%%%%%%+%@++%%+.++%%..",
"..++%@$+++++..+..$.%@+.+++@%+..%.@@+.$.+.%%+++++..++++@+.++.++$*",
"+%&%+$+%.*+$.&++%+.%.+++++@+.%@+.%+$.$%+++..+++..*+@+.+...++++$.",
"++++..+@%%++%++.+..+*++.*%+..@+.+.+..#@*%+@++%..++++$+*+++.+++$.",
"+++..%@+++.++++++.+@+.++%++.@++%+.+++@$@+++%%+..+.+.++++.@.+++++",
".++.+@.+...%+.%+++@+$+@++..++.+.++%.*%@%+..+$=%+++++%++.++.%.+*+",
"+++.+%++$+++.+#.+.%.+%.@+%+&+..+@..+@%..+++++##@.+@+%++.%..++.+@",
"#.++++%$*##+.++$+=%*+@++.%+%++%++$.+.....@@+%++.+@.%+*$++$..*@%%",
".$+.+.+.%#++.+++..++++..%+.%@@+++*@#%++.+%+.+++.%+*%..$..@+%#@.+",
"+%++.%+&+#.$.@%..+++#..@+.@+++++.#%+.$++%+..+..++$$+..+@%+@++.++",
"+&..%%.+@+.$%+$.+.&@+$%++.+.@++.++$.+$%+#+%&+.+#%..+.%@@+.%$+%++",
"&.$+%@*+@+$.@+.++.++.%#+..+%#+$+..+%+.@*+.*++++@...%#%++.$%.+%.#",
"++.@@+.+.$.+%@@++++.%%+...#+.=*#+%+++++@++%..+%++*++@.@+$*%$@%++",
"+.+%+.$$++@%+...++&+++...$@+*+-.$.++$*+%.+@..%..%...@$&+..@$#+.+",
"..%...%+@%#@++.@.*+..@++.+++++..@++.+++.+++.++.@+...%++%.+%.%*++",
".++$.#%$+@++..+&++%%%+.$$++*+.++.@%+*+%+++++%+@+$.+.%.+.$++.%+..",
"@++.+@=$++....&@++%.+++.%%%@+%#+.@*.$%+..++++$.$$%+.%++@++..++.+",
"%%++@...%++@.++.$.+.+++++++++%..@++++%.+%+*.+++++#+++++..+..#+@@",
"#+$+..++++++++%++%@++...++.+....++%@.%+++++#+%+.+&+.+.+%+@++%.+%",
"+=$+*#@+#+..@+@++%%#+++&+@*@....@++.+%...++%.++.&+%.++@+.+..%.%*",
"..++%@+.+.+%+...+.@.$+++%+++.%+++.+++++%++.#+.+.%.+.+++*++..+*#+",
"+.+.+++.+++%@+++.++..++%+.$++@..%&*...@+$%*%$++.+.#.+++++.+.@+@+",
"+..+%++.++++..&%++.++%....+#++.++..+++..*#.#.+..*#@.$#..++@.%.@.",
".%++#+..%@.+.*@@.+%+.=$%%%+%...+.++++++@%@$%$+.++%++$%$.++.@*%@.",
".++@@+.$#@.&+%@...$=.++%.++++.@++%%.+..+.+$+@%$%+@++.+$.%..++++.",
"+*%*++=+#..@..$$.++@####%@++.$+%++...#.+$%+%#..%+.+++&.+@+@+.@..",
".++++.+%+$$+.%++@%%%++++.....++@++.+++$+@#++%$++.+#+*+$%&.+++%++",
"+%+..+.++++#+..+%++.++++$%+.#+.@+*+...+@+.+$@$+++++++.@%@+%++..+",
"@+...+@@+*...++@+++++++++@.++..&+++$*+%+.+.$&.+%++++..%+%++@+.++",
"+..+%.+.+%+.%++@.+.+.++.@..%.+.%++..#%+$$%++%+%+.$++..+.+..+.&++",
"%+.+..@+%+.++@+.+..+...++=%+.%.+++.%@+++.#.++..+++++++@.++++.#++",
"$.+%.%+@+.@++%.%+..@..*%.%@+.++.++.+.+.$+#*@+.#+.@+++*+.++.*.@+."};
