/* XPM */
static char * fg_xpm[] = {
"100 100 14 1",
" 	c None",
".	c #FFCC66",
"+	c #FFAE4C",
"@	c #FFC054",
"#	c #FFCC99",
"$	c #FFCC33",
"%	c #FFFF66",
"&	c #FFFF99",
"*	c #FF9933",
"=	c #777777",
"-	c #663300",
";	c #CC6633",
">	c #FF6600",
",	c #FF9900",
"                     .+@+...+.....+..@#..+...$@@...+@@@+#.@.%&*=-;+.$..+@@*...+.#$....+@+...+.....+.",
"                     +@@+...+.....+..@#...+..$@@#..+@@@+#.@.%&*=-;+.$..+@@*...+.#$...+@@+...+.....+.",
"                     +@@+...+.....+..@@...+..$@@#..+@@@+#.@.%&*=-;+.$..+@@*...+.#$...+@@+...+.....+.",
"                     +@@+...+....+....@@..+..$@@#..+@@@+#.@.%&*=-;+.$..+@@*...+.#$...+@@+...+....+..",
"                     +@@+...+...+..+..@@..+..$@@#..+@@@+#.@.%&*=-;+.$..+@@*..+..#$...+@@+...+...+..+",
"                     +@@+...+...+..++.@@..+..$@@#..+@@@+#.@.%&*=-;+.$..+@@*..+..#$...+@@+...+...+..+",
"                     +@@+...+...+..++.@@..+..$@@#..+@@@+#.@.%&*=-;+.$..+@@*..+..#$...+@@+...+...+..+",
"                     .+@+...+..+..+.+.@@..+..$@@#..+@@@+#.@.%&*=-;+.$..+@@*..+..#$....+@+...+..+..+.",
"                     .+@+...+..+..+.+.#@..+..$@@#..+@@@+#.@.%&*=-;+.$..+@@*..+..#$....+@+...+..+..+.",
"                     .+@+...+.+...+$+..@..+..$@@#..+@@@+#.@.%&*=-;+.$..+@@*..+..#$....+@+...+.+...+$",
"                     .+@+...+.+...+$.+.@#.+..$@@#..+@@@+#.@.%&*=-;+.$..+@@*..+..#$....+@+...+.+...+$",
"                     .+@+...+.+..*.$.+.@@.+..$@@#..+@@@+#.@.%&*=-;+.$..+@@*..+..#$....+@+...+.+..*.$",
"                     .+@+...+.+..*.$.+.@@.+..$@@#..+@@@+#.@.%&*=-;+.$..+@@*..+..#$....+@+...+.+..*.$",
"                     .+@+...+.+..*.$.+..@.+..$@@#..+@@@+#.@.%&*=-;+.$..+@@*..+..#$....+@+...+.+..*.$",
"                     .+@+...+.+..*....*.@.+..$@@#..+@@@+#.@.%&*=-;+.$..+@@*..+..#$....+@+...+.+..*..",
"                     .+@+...+.+..*.*$.*.@.+..$@@#..+@@@+#.@.%&*=-;+.$..+@@*..+..#$....+@+...+.+..*.*",
"                     .+@+...+.+.*$.**.*.@.+..$@@#..+@@@+#.@.%&*=-;+.$..+@@*..+..#$....+@+...+.+.*$.*",
"                     .+@+...+.+.*.**>*.*.#+..$@@#..+@@@+#.@.%&*=-;+.$..+@@*..+..#$....+@+...+.+.*.**",
"                     .+@+...+.+.*.,>**.*.#.+.$@@#...+@@+#.@.%&*=-;+.$..+@@*..+..#$....+@+...+.+.*.,>",
"-;+.$..+@@*..+..#$....+@+..+..+.*.*+*..*.#.+.$@@#...+@@+#.@.%&*=-;+.$..+@@*..+..#$....+@+..+..+.*.*+",
"-;+.$..+@@*..+..#$....+@+..+..+.*.*+*..*.#.+.$@@#...+@@+#.@.%&*=-;+.$..+@@*..+..#$....+@+..+..+.*.*+",
"-;+.$..+@@*..+..#$....+@@+.+..+.*.*+,..*.#.+.$@@#...+@@+#.@.%&*=-;+.$..+@@*..+..#$....+@@+.+..+.*.*+",
"-;+.$..+@@*..+..#$....+@@+.+..+.*.*+*..*.#.+.$@@#...+@@+#.@.%&*=-;+.$..+@@*..+..#$....+@@+.+..+.*.*+",
"-;+.$..+@@*..+..#$....+@@+.+..+.*.*+,.*..#.+.$@@#...+@@+#.@.%&*=-;+.$..+@@*..+..#$....+@@+.+..+.*.*+",
"-;+.$..+@@*..+..#$....+@@+.+..+.*.***.*..#.+.$@@#...+@@+#.@.%&*=-;+.$..+@@*..+..#$....+@@+.+..+.*.**",
"-;+.$..+@@*..+..#$....+@@+.+..+..*.*..*..@.+.$@@#...+@@+#.@.%&*=-;+.$..+@@*..+..#$....+@@+.+..+..*.*",
"-;+.$..+@@*..+..#$....+@@+.+..+..*....*..@.+.$@@#...+@@+#.@.%&*=-;+.$..+@@*..+..#$....+@@+.+..+..*..",
"-;+.$..+@@*..+..#$...+@@@+.+..+...*...*..@.+.$@@#...+@@+#.@.%&*=-;+.$..+@@*..+..#$...+@@@+.+..+...*.",
"-;+.$..+@@*..+..#$...+@@@+.+..+...*...*.$@.+.$@@#...+@@+#.@.%&*=-;+.$..+@@*..+..#$...+@@@+.+..+...*.",
"-;+.$.+@@@*..+..#$...+@@+..+..+....***..@@.+.$@@#..+@@@+#.@.%&*=-;+.$.+@@@*..+..#$...+@@+..+..+....*",
"-;+.$.+@@@*..+..#$...+@@+..+..+..$.....$@@.+.$@@#..+@@@+#.@.%&*=-;+.$.+@@@*..+..#$...+@@+..+..+..$..",
"-;+.$.+@@@*..+..#$...+@@+..+..+..$$....$@@.+.$@@#..+@@@+#.@.%&*=-;+.$.+@@@*..+..#$...+@@+..+..+..$$.",
"-;+.$.+@@@*..+..#$...+@@+..+..+...$....$@@.+.$@@#..+@@@+#.@.%&*=-;+.$.+@@@*..+..#$...+@@+..+..+...$.",
"-;+.$.+@@@*..+..#$...+@@+...+..+...@..$@@..+.$@@...+@@@+#.@.%&*=-;+.$.+@@@*..+..#$...+@@+...+..+...@",
"-;+.$.+@@@*..+..#$...+@@+...+...+..@$.$@@.+..$@@...+@@@+#.@.%&*=-;+.$.+@@@*..+..#$...+@@+...+...+..@",
"-;+.$.+@@@*..+..#$...+@@+...+...+..@@.@@..+..$@@...+@@@+#.@.%&*=-;+.$.+@@@*..+..#$...+@@+...+...+..@",
"-;+.$.+@@@*..+..#$...+@@+...+...+..@@@@@..+..$@@...+@@@+#.@.%&*=-;+.$.+@@@*..+..#$...+@@+...+...+..@",
"-;+.$.+@@@*..+..#$...+@@+...+....+..@@@@..+..$@@...+@@@+#.@.%&*=-;+.$.+@@@*..+..#$...+@@+...+....+..",
"-;+.$.+@@@*..+..#$...+@@+...+....+..@@.@..+..$@@...+@@@+#.@.%&*=-;+.$.+@@@*..+..#$...+@@+...+....+..",
"-;+.$.+@@@*..+..#$...+@@+...+....+..@@@@..+..$@@...+@@@+#.@.%&*=-;+.$.+@@@*..+..#$...+@@+...+....+..",
"-;+.$.+@@@*..+..#$...+@@+...+....+..@@@...+..$@@...+@@@+#.@.%&*=-;+.$.+@@@*..+..#$...+@@+...+....+..",
"-;+.$.+@@@*..+..#$...+@@+...+.#..+..@@@...+..$@@...+@@@+#.@.%&*=-;+.$.+@@@*..+..#$...+@@+...+.#..+..",
"-;+.$.+@@@*..+..#$...+@@+...+.#..+...@@...+..$@@...+@@@+#.@.%&*=-;+.$.+@@@*..+..#$...+@@+...+.#..+..",
"-;+.$.+@@@*..+..#$...+@@+...+.#..+...@@...+..$@@...+@@@+#.@.%&*=-;+.$.+@@@*..+..#$...+@@+...+.#..+..",
"-;+.$..+@@*..+..#$...+@@+...+.#..+...@@...+..$@@...+@@@+#.@.%&*=-;+.$..+@@*..+..#$...+@@+...+.#..+..",
"-;+.$..+@@*..+..#$...+@@+...+.#..+...@@...+..$@@...+@@@+#.@.%&*=-;+.$..+@@*..+..#$...+@@+...+.#..+..",
"-;+.$..+@@*...+.#$...+@@+...+.#..+...@@...+..$@@...+@@@+#.@.%&*=-;+.$..+@@*...+.#$...+@@+...+.#..+..",
"-;+.$..+@@*...+.#$....+@@+..+.#..+...@@...+..$@@...+@@@+#.@.%&*=-;+.$..+@@*...+.#$....+@@+..+.#..+..",
"-;+.$..+@@*...+.#$....+@@+..+.#..+...@@...+..$@@...+@@@+#.@.%&*=-;+.$..+@@*...+.#$....+@@+..+.#..+..",
"-;+.$..+@@*...+.#$....+@@+..+.#..+...@@...+..$@@...+@@@+#.@.%&*=-;+.$..+@@*...+.#$....+@@+..+.#..+..",
"-;+.$..+@@*...+.#$....+@@+..+.#..+...@@...+..$@@...+@@@+#.@.%&*=-;+.$..+@@*...+.#$....+@@+..+.#..+..",
"-;+.$..+@@*...+.#$....+@@+..+.#..+...@@...+..$@@...+@@@+#.@.%&*=-;+.$..+@@*...+.#$....+@@+..+.#..+..",
"-;+.$..+@@*...+.#$....+@@+..+.#...+..@@...+..$@@...+@@@+#.@.%&*=-;+.$..+@@*...+.#$....+@@+..+.#...+.",
"-;+.$..+@@*...+.#$....+@@+..+.#...+..@@...+..$@@...+@@@+#.@.%&*=-;+.$..+@@*...+.#$....+@@+..+.#...+.",
"-;+.$..+@@*...+.#$....+@@+..+.#...+..@@...+..$@@...+@@@+#.@.%&*=-;+.$..+@@*...+.#$....+@@+..+.#...+.",
"-;+.$..+@@*...+.#$....+@@+..+.#...+..@@...+..$@@...+@@@+#.@.%&*=-;+.$..+@@*...+.#$....+@@+..+.#...+.",
"-;+.$..+@@*...+.#$....+@+...+.....+..@#..+...$@@...+@@@+#.@.%&*=-;+.$..+@@*...+.#$....+@+...+.....+.",
"-;+.$..+@@*...+.#$...+@@+...+.....+..@#...+..$@@#..+@@@+#.@.%&*=-;+.$..+@@*...+.#$...+@@+...+.....+.",
"-;+.$..+@@*...+.#$...+@@+...+.....+..@@...+..$@@#..+@@@+#.@.%&*=-;+.$..+@@*...+.#$...+@@+...+.....+.",
"-;+.$..+@@*...+.#$...+@@+...+....+....@@..+..$@@#..+@@@+#.@.%&*=-;+.$..+@@*...+.#$...+@@+...+....+..",
"-;+.$..+@@*..+..#$...+@@+...+...+..+..@@..+..$@@#..+@@@+#.@.%&*=-;+.$..+@@*..+..#$...+@@+...+...+..+",
"-;+.$..+@@*..+..#$...+@@+...+...+..++.@@..+..$@@#..+@@@+#.@.%&*=-;+.$..+@@*..+..#$...+@@+...+...+..+",
"-;+.$..+@@*..+..#$...+@@+...+...+..++.@@..+..$@@#..+@@@+#.@.%&*=-;+.$..+@@*..+..#$...+@@+...+...+..+",
"-;+.$..+@@*..+..#$....+@+...+..+..+.+.@@..+..$@@#..+@@@+#.@.%&*=-;+.$..+@@*..+..#$....+@+...+..+..+.",
"-;+.$..+@@*..+..#$....+@+...+..+..+.+.#@..+..$@@#..+@@@+#.@.%&*=-;+.$..+@@*..+..#$....+@+...+..+..+.",
"-;+.$..+@@*..+..#$....+@+...+.+...+$+..@..+..$@@#..+@@@+#.@.%&*=-;+.$..+@@*..+..#$....+@+...+.+...+$",
"-;+.$..+@@*..+..#$....+@+...+.+...+$.+.@#.+..$@@#..+@@@+#.@.%&*=-;+.$..+@@*..+..#$....+@+...+.+...+$",
"-;+.$..+@@*..+..#$....+@+...+.+..*.$.+.@@.+..$@@#..+@@@+#.@.%&*=-;+.$..+@@*..+..#$....+@+...+.+..*.$",
"-;+.$..+@@*..+..#$....+@+...+.+..*.$.+.@@.+..$@@#..+@@@+#.@.%&*=-;+.$..+@@*..+..#$....+@+...+.+..*.$",
"-;+.$..+@@*..+..#$....+@+...+.+..*.$.+..@.+..$@@#..+@@@+#.@.%&*=-;+.$..+@@*..+..#$....+@+...+.+..*.$",
"-;+.$..+@@*..+..#$....+@+...+.+..*....*.@.+..$@@#..+@@@+#.@.%&*=-;+.$..+@@*..+..#$....+@+...+.+..*..",
"-;+.$..+@@*..+..#$....+@+...+.+..*.*$.*.@.+..$@@#..+@@@+#.@.%&*=-;+.$..+@@*..+..#$....+@+...+.+..*.*",
"-;+.$..+@@*..+..#$....+@+...+.+.*$.**.*.@.+..$@@#..+@@@+#.@.%&*=-;+.$..+@@*..+..#$....+@+...+.+.*$.*",
"-;+.$..+@@*..+..#$....+@+...+.+.*.**>*.*.#+..$@@#..+@@@+#.@.%&*=-;+.$..+@@*..+..#$....+@+...+.+.*.**",
"-;+.$..+@@*..+..#$....+@+...+.+.*.,>**.*.#.+.$@@#...+@@+#.@.%&*=-;+.$..+@@*..+..#$....+@+...+.+.*.,>",
"-;+.$..+@@*..+..#$....+@+..+..+.*.*+*..*.#.+.$@@#...+@@+#.@.%&*=-;+.$..+@@*..+..#$....+@+..+..+.*.*+",
"-;+.$..+@@*..+..#$....+@+..+..+.*.*+*..*.#.+.$@@#...+@@+#.@.%&*=-;+.$..+@@*..+..#$....+@+..+..+.*.*+",
"-;+.$..+@@*..+..#$....+@@+.+..+.*.*+,..*.#.+.$@@#...+@@+#.@.%&*=-;+.$..+@@*..+..#$....+@@+.+..+.*.*+",
"-;+.$..+@@*..+..#$....+@@+.+..+.*.*+*..*.#.+.$@@#...+@@+#.@.%&*=-;+.$..+@@*..+..#$....+@@+.+..+.*.*+",
"-;+.$..+@@*..+..#$....+@@+.+..+.*.*+,.*..#.+.$@@#...+@@+#.@.%&*=-;+.$..+@@*..+..#$....+@@+.+..+.*.*+",
"-;+.$..+@@*..+..#$....+@@+.+..+.*.***.*..#.+.$@@#...+@@+#.@.%&*=-;+.$..+@@*..+..#$....+@@+.+..+.*.**",
"-;+.$..+@@*..+..#$....+@@+.+..+..*.*..*..@.+.$@@#...+@@+#.@.%&*=-;+.$..+@@*..+..#$....+@@+.+..+..*.*",
"-;+.$..+@@*..+..#$....+@@+.+..+..*....*..@.+.$@@#...+@@+#.@.%&*=-;+.$..+@@*..+..#$....+@@+.+..+..*..",
"-;+.$..+@@*..+..#$...+@@@+.+..+...*...*..@.+.$@@#...+@@+#.@.%&*=-;+.$..+@@*..+..#$...+@@@+.+..+...*.",
"-;+.$..+@@*..+..#$...+@@@+.+..+...*...*.$@.+.$@@#...+@@+#.@.%&*=-;+.$..+@@*..+..#$...+@@@+.+..+...*.",
"-;+.$.+@@@*..+..#$...+@@+..+..+....***..@@.+.$@@#..+@@@+#.@.%&*=-;+.$.+@@@*..+..#$...+@@+..+..+....*",
"-;+.$.+@@@*..+..#$...+@@+..+..+..$.....$@@.+.$@@#..+@@@+#.@.%&*=-;+.$.+@@@*..+..#$...+@@+..+..+..$..",
"-;+.$.+@@@*..+..#$...+@@+..+..+..$$....$@@.+.$@@#..+@@@+#.@.%&*=-;+.$.+@@@*..+..#$...+@@+..+..+..$$.",
"-;+.$.+@@@*..+..#$...+@@+..+..+...$....$@@.+.$@@#..+@@@+#.@.%&*=-;+.$.+@@@*..+..#$...+@@+..+..+...$.",
"-;+.$.+@@@*..+..#$...+@@+...+..+...@..$@@..+.$@@...+@@@+#.@.%&*=-;+.$.+@@@*..+..#$...+@@+...+..+...@",
"-;+.$.+@@@*..+..#$...+@@+...+...+..@$.$@@.+..$@@...+@@@+#.@.%&*=-;+.$.+@@@*..+..#$...+@@+...+...+..@",
"-;+.$.+@@@*..+..#$...+@@+...+...+..@@.@@..+..$@@...+@@@+#.@.%&*=-;+.$.+@@@*..+..#$...+@@+...+...+..@",
"-;+.$.+@@@*..+..#$...+@@+...+...+..@@@@@..+..$@@...+@@@+#.@.%&*=-;+.$.+@@@*..+..#$...+@@+...+...+..@",
"-;+.$.+@@@*..+..#$...+@@+...+....+..@@@@..+..$@@...+@@@+#.@.%&*=-;+.$.+@@@*..+..#$...+@@+...+....+..",
"-;+.$.+@@@*..+..#$...+@@+...+....+..@@.@..+..$@@...+@@@+#.@.%&*=-;+.$.+@@@*..+..#$...+@@+...+....+..",
"-;+.$.+@@@*..+..#$...+@@+...+....+..@@@@..+..$@@...+@@@+#.@.%&*=-;+.$.+@@@*..+..#$...+@@+...+....+..",
"-;+.$.+@@@*..+..#$...+@@+...+....+..@@@...+..$@@...+@@@+#.@.%&*=-;+.$.+@@@*..+..#$...+@@+...+....+..",
"-;+.$.+@@@*..+..#$...+@@+...+.#..+..@@@...+..$@@...+@@@+#.@.%&*=-;+.$.+@@@*..+..#$...+@@+...+.#..+..",
"-;+.$.+@@@*..+..#$...+@@+...+.#..+...@@...+..$@@...+@@@+#.@.%&*=-;+.$.+@@@*..+..#$...+@@+...+.#..+..",
"-;+.$.+@@@*..+..#$...+@@+...+.#..+...@@...+..$@@...+@@@+#.@.%&*=-;+.$.+@@@*..+..#$...+@@+...+.#..+.."};
